<?xml version="1.0" encoding="UTF-8" standalone="no"?><!DOCTYPE svg PUBLIC "-//W3C//DTD SVG 1.1//EN" "http://www.w3.org/Graphics/SVG/1.1/DTD/svg11.dtd"><svg width="100%" height="100%" viewBox="0 0 148 148" version="1.1" xmlns="http://www.w3.org/2000/svg" xmlns:xlink="http://www.w3.org/1999/xlink" xml:space="preserve" xmlns:serif="http://www.serif.com/" style="fill-rule:evenodd;clip-rule:evenodd;stroke-linejoin:round;stroke-miterlimit:2;"><rect x="-10.615" y="-8.707" width="176.42" height="167.934" style="fill:#fff;"/><path d="M63.554,80.981l-0.732,10.765l3.784,-0.974c1.167,-0.287 4.284,-1.063 4.284,-1.063c0,0 -0.005,3.015 0,4.267c0.015,3.598 0,3.614 0,3.614c0,-0 -1.645,0.444 -2.785,0.714l-26.163,6.205c-1.053,0.249 -4.678,1.178 -4.678,1.178l0,-4.066c0.006,-1.989 0.258,-3.678 3.306,-4.343l14.509,-3.696l0.672,-9.885l7.803,-2.716Zm-7.237,-5.596l1.132,-16.653l-6.583,2.031c-1.093,0.338 -5.287,1.563 -5.287,1.563l0.275,-4.057c0.177,-2.606 0.382,-4.092 2.771,-4.767l11.87,-3.664c1.196,-0.37 5.241,-1.511 5.241,-1.511c0,0 -0.244,4.15 -0.329,5.399l-1.288,18.942l-7.802,2.717Zm18.855,-6.566l0.19,-20.055l-0,-2.735c-0,0 1.815,-0.62 2.643,-0.885l14.351,-4.585c1.166,-0.373 6.868,-2.13 6.868,-2.13c-0,-0 0.229,2.699 0.45,4.71c0.366,3.322 -3.007,4.021 -5.004,4.659l-11.708,3.741l-0.215,14.642l-7.575,2.638Zm12.035,-4.134l9.528,-3.299c0.559,-0.194 4.499,-1.543 4.499,-1.543c-0,0 0.47,4.191 0.526,4.76l2.198,22.28c0.189,1.913 -1.081,3.666 -2.958,4.082l-21.23,4.713c-1.125,0.25 -4.623,1.02 -4.623,1.02l-0,-19.752l7.6,-2.645l-0,12.932l13.317,-2.957l-1.394,-14.133l-7.463,2.585l-0,-8.043Z"/></svg>